# xmcd
#
# Track frame offsets:
#	150
#	14455
#	26913
#	37258
#	49840
#	60594
#	71435
#	82471
#	94735
#	106067
#	121555
#	129325
#
# Disc length: 1883 seconds
#
# Revision: 1
# Processed by: cddbd v1.5.1PL0 Copyright (c) Steve Scherf et al.
# Submitted via: audiograbber 1.83.01
#
DISCID=a007590c
DTITLE=Porter Wagoner - Me And My Boys
DYEAR=1900
DGENRE=
TTITLE0=My Boys
TTITLE1=Tennessee Stud
TTITLE2=Big Wind
TTITLE3=What I'd Give to Hear a Baby Cry
TTITLE4=Through This World of Mine
TTITLE5=Peace on Earth Begins Today
TTITLE6=My Ramblin' Boy
TTITLE7=A Picture from Life's Other Side
TTITLE8=Shuckin' Corn
TTITLE9=House of Shame
TTITLE10=He's a Go Getter
TTITLE11=I Coudn't Wait Forever
EXTD=
EXTT0=
EXTT1=
EXTT2=
EXTT3=
EXTT4=
EXTT5=
EXTT6=
EXTT7=
EXTT8=
EXTT9=
EXTT10=
EXTT11=
PLAYORDER=
